<svg xmlns="http://www.w3.org/2000/svg" viewBox="0 0 57.96 21.88"><defs><style>.cls-1{fill:#39a835;}.cls-2{fill:#1d70b6;}.cls-3{fill:#f19000;}.cls-4{fill:#e10613;}.cls-5{fill:#3c3c3b;}</style></defs><title>Recurso 2logo_diseño</title><g id="Capa_2" data-name="Capa 2"><g id="varios"><path class="cls-1" d="M31.38,19.07A65.33,65.33,0,0,0,0,21.88a64.3,64.3,0,0,1,30.6-1.1C30.88,20.28,31.38,19.07,31.38,19.07Z"/><path class="cls-2" d="M35.23,4.35A4.32,4.32,0,0,0,31.41.06a5.62,5.62,0,0,0-6.25,4h0l-1.93,7.19h-.71v1.61h.27l-1.08,4h4.17l1.08-4h2a1.58,1.58,0,0,0,1.61-1.61H27.4l2-7.45a2.09,2.09,0,0,1,2.9-1.19,2,2,0,1,0,2.92,1.86h0S35.23,4.4,35.23,4.35Z"/><path class="cls-3" d="M24.26,6.69a3.62,3.62,0,0,0-3.14-1.63c-2.89,0-6,2.71-6.86,6s.73,6,3.62,6A6.07,6.07,0,0,0,21.25,16l-1-1.31a1.37,1.37,0,0,1-.54.06c-.7-.07-1.16-.75-1.3-1.74a5.82,5.82,0,0,0,5.46-2.4A3.37,3.37,0,0,0,24.26,6.69Zm-3.33,3.76a6.93,6.93,0,0,1-2.44.68c.32-2.3,2.46-4.16,3.67-3.9C23.17,7.44,22.59,9.66,20.93,10.45Z"/><path class="cls-4" d="M9.74.31H2.22A3.53,3.53,0,0,0,4.68,3.53L1,17.22H5.58c5.73,0,11.34-4.64,11.34-10.37A6.73,6.73,0,0,0,9.74.31ZM6.29,13.1,8.85,3.53c2.67.26,3,2.53,3,3.72C11.85,10.21,9.22,12.67,6.29,13.1Z"/><path class="cls-5" d="M36.37,8.11l-.29.27a1,1,0,0,0-.78-.33c-.43,0-.8.23-.8.63s.16.45.71.63,1,.4,1,1-.34,1.2-1.45,1.2a1.53,1.53,0,0,1-1.2-.5l.3-.28a1.14,1.14,0,0,0,.9.39c.53,0,1-.3,1-.78s-.19-.5-.71-.68-1-.46-1-1a1.14,1.14,0,0,1,1.27-1A1.41,1.41,0,0,1,36.37,8.11Z"/><path class="cls-5" d="M39.27,9.72c0,.7-.35,1.82-1.47,1.82a1,1,0,0,1-1.08-1.18c0-.71.36-1.82,1.47-1.82A1,1,0,0,1,39.27,9.72Zm-2.08.69c0,.52.22.76.62.76.77,0,1-.93,1-1.49s-.22-.76-.62-.76C37.41,8.91,37.2,9.84,37.2,10.41Z"/><path class="cls-5" d="M40.13,10.93c0,.16,0,.23.14.23a.52.52,0,0,0,.2,0l.09.34a.92.92,0,0,1-.38.09c-.37,0-.56-.22-.5-.68l.49-3.41.46-.05Z"/><path class="cls-5" d="M42.62,11.47l0-.57a1.2,1.2,0,0,1-1,.64c-.51,0-.76-.33-.69-.89l.29-2h.45l-.28,2c-.06.4.05.55.32.55s.68-.36.91-.73L43,8.61h.45L43,11.47Z"/><path class="cls-5" d="M46,8.85l-.25.28a.78.78,0,0,0-.57-.21c-.75,0-1,.88-1,1.48s.23.74.62.74a1.17,1.17,0,0,0,.68-.23l.19.32a1.52,1.52,0,0,1-.89.3,1,1,0,0,1-1.06-1.17c0-.75.39-1.83,1.44-1.83A1.12,1.12,0,0,1,46,8.85Z"/><path class="cls-5" d="M46.14,11.47l.4-2.87H47l-.4,2.87ZM47.23,7.6a.33.33,0,0,1-.34.29.29.29,0,0,1-.29-.34.34.34,0,0,1,.34-.29A.28.28,0,0,1,47.23,7.6Z"/><path class="cls-5" d="M49.88,9.72c0,.7-.35,1.82-1.47,1.82a1,1,0,0,1-1.08-1.18c0-.71.36-1.82,1.47-1.82A1,1,0,0,1,49.88,9.72Zm-2.08.69c0,.52.22.76.62.76.77,0,1-.93,1-1.49s-.22-.76-.62-.76C48,8.91,47.81,9.84,47.81,10.41Z"/><path class="cls-5" d="M52.63,9.44l-.28,2h-.46l.28-2c.07-.44-.09-.54-.37-.54s-.67.39-.91.83l-.23,1.72h-.45l.4-2.87H51l0,.59a1.29,1.29,0,0,1,1-.66C52.46,8.54,52.72,8.89,52.63,9.44Z"/><path class="cls-5" d="M53.55,10.4c0,.56.27.76.65.76a1.28,1.28,0,0,0,.77-.27l.2.31a1.69,1.69,0,0,1-1,.35,1,1,0,0,1-1.08-1.16c0-.79.39-1.84,1.47-1.84.59,0,.9.34.9.72C55.44,10.06,54.59,10.29,53.55,10.4ZM55,9.28a.37.37,0,0,0-.43-.37c-.63,0-.89.59-1,1.13C54.45,10,55,9.77,55,9.28Z"/><path class="cls-5" d="M58,8.89l-.22.29A1,1,0,0,0,57,8.91c-.38,0-.62.16-.62.41s.19.34.59.46.81.4.81.87-.56.9-1.18.9a1.43,1.43,0,0,1-1-.41l.28-.28a1.09,1.09,0,0,0,.79.32c.51,0,.68-.28.68-.5s-.15-.39-.62-.55S56,9.72,56,9.34s.34-.8,1.08-.8A1.3,1.3,0,0,1,58,8.89Z"/><path class="cls-5" d="M35.13,13.44l-.31.27a1,1,0,0,0-.76-.29c-1,0-1.38,1.14-1.38,2.07,0,.72.31,1,.88,1a1.43,1.43,0,0,0,.74-.19l.17-1.16h-.67v-.39H35l-.25,1.78a2.24,2.24,0,0,1-1.24.35c-.81,0-1.31-.5-1.31-1.48S32.75,13,34,13A1.47,1.47,0,0,1,35.13,13.44Z"/><path class="cls-5" d="M37.13,13.94l-.14.44a.8.8,0,0,0-.23,0c-.38,0-.64.34-.85.93l-.22,1.55h-.45l.4-2.87H36l0,.62c.22-.46.52-.68.85-.68A1.12,1.12,0,0,1,37.13,13.94Z"/><path class="cls-5" d="M39.7,14.14l-.31,2a1.28,1.28,0,0,0,0,.13.25.25,0,0,0,.19.27l-.13.32a.49.49,0,0,1-.48-.49,1.09,1.09,0,0,1-.86.49c-.59,0-.91-.44-.91-1.1s.41-1.9,1.52-1.9A2.11,2.11,0,0,1,39.7,14.14Zm-2,1.65c0,.5.19.74.53.74s.55-.23.78-.55l.24-1.61a1.07,1.07,0,0,0-.51-.1C38,14.26,37.67,15.15,37.67,15.8Zm.59-2.45-.1-.25,1.13-.61.15.39Z"/><path class="cls-5" d="M42.45,16.83H42l.35-2.51H41.21l-.33,2.37a1.39,1.39,0,0,1-1,1.29l-.13-.34a1,1,0,0,0,.71-1l.33-2.37h-.51L40.3,14h.5l.06-.43a.92.92,0,0,1,1-.79,1.36,1.36,0,0,1,.79.24l-.18.31a1.1,1.1,0,0,0-.59-.18c-.38,0-.55.15-.59.45l-.05.4h1.6Z"/><path class="cls-5" d="M45.43,14.21l-.25.28a.78.78,0,0,0-.57-.21c-.75,0-1,.88-1,1.48s.23.74.62.74a1.17,1.17,0,0,0,.68-.23l.19.32a1.52,1.52,0,0,1-.89.3,1,1,0,0,1-1.06-1.17c0-.75.39-1.83,1.44-1.83A1.12,1.12,0,0,1,45.43,14.21Z"/><path class="cls-5" d="M48,14.14l-.31,2a1.28,1.28,0,0,0,0,.13.25.25,0,0,0,.19.27l-.13.32a.49.49,0,0,1-.48-.49,1.09,1.09,0,0,1-.86.49c-.59,0-.91-.44-.91-1.1s.41-1.9,1.52-1.9A2.11,2.11,0,0,1,48,14.14ZM46,15.8c0,.5.19.74.53.74s.55-.23.78-.55l.24-1.61a1.07,1.07,0,0,0-.51-.1C46.24,14.26,46,15.15,46,15.8Z"/><path class="cls-5" d="M50.72,14.25l-.22.29a1,1,0,0,0-.69-.27c-.38,0-.62.16-.62.41s.19.34.59.46.81.4.81.87-.56.9-1.18.9a1.43,1.43,0,0,1-1-.41l.28-.28a1.09,1.09,0,0,0,.78.32c.51,0,.68-.28.68-.5s-.15-.39-.62-.55-.77-.4-.77-.78.34-.8,1.08-.8A1.3,1.3,0,0,1,50.72,14.25Z"/></g></g></svg>